<svg width="25" height="24" viewBox="0 0 25 24" fill="none" xmlns="http://www.w3.org/2000/svg">
<g id="vuesax/bulk/sms">
<g id="sms">
<path id="Vector" d="M17.5 20.5H7.5C4.5 20.5 2.5 19 2.5 15.5V8.5C2.5 5 4.5 3.5 7.5 3.5H17.5C20.5 3.5 22.5 5 22.5 8.5V15.5C22.5 19 20.5 20.5 17.5 20.5Z" fill="white"/>
<g id="Group">
<path id="Vector_2" d="M12.5027 12.87C11.6627 12.87 10.8127 12.61 10.1627 12.08L7.03271 9.57997C6.71271 9.31997 6.65271 8.84997 6.91271 8.52997C7.17271 8.20997 7.64271 8.14997 7.96271 8.40997L11.0927 10.91C11.8527 11.52 13.1427 11.52 13.9027 10.91L17.0327 8.40997C17.3527 8.14997 17.8327 8.19997 18.0827 8.52997C18.3427 8.84997 18.2927 9.32997 17.9627 9.57997L14.8327 12.08C14.1927 12.61 13.3427 12.87 12.5027 12.87Z" fill="#C1A8F5"/>
</g>
</g>
</g>
</svg>
