<svg width="160" height="52" viewBox="0 0 52 52" fill="none" xmlns="http://www.w3.org/2000/svg">
<g id="OlaLingo_logo 1">
<path id="Vector" fill-rule="evenodd" clip-rule="evenodd" d="M22.3731 2.69758C22.2836 2.22099 21.9893 1.89543 21.5794 1.5901C19.9381 0.593157 17.7536 1.83102 16.747 3.02446L16.6399 3.15366C16.0867 3.78407 15.707 4.50406 15.4996 5.28098L15.4489 5.49216C15.1053 6.83994 15.1571 8.33805 15.7791 9.62065C15.8352 9.73123 15.8908 9.84166 15.9436 9.95348C16.2254 10.5513 16.5788 11.0792 16.9924 11.6133L17.1322 11.7883L17.2613 11.9524C17.2764 11.9713 17.2913 11.989 17.3054 12.006C17.3956 12.1136 17.4608 12.1916 17.4367 12.3398C17.4158 12.3922 17.4047 12.4202 17.3975 12.4492C17.3892 12.4821 17.3859 12.5164 17.3791 12.5897L17.3722 12.7417L17.3641 12.907L17.3568 13.0784C17.349 13.2416 17.3413 13.4048 17.3341 13.568L17.3294 13.6769C17.2782 13.6997 17.2443 13.7147 17.2124 13.7335C17.1499 13.7703 17.0953 13.8214 16.9337 13.9727C16.4337 14.4784 16.2892 14.9504 16.3092 15.6118C16.3596 16.1424 16.6834 16.7237 17.1413 17.0733C17.3118 17.1537 17.4745 17.2324 17.6342 17.3292C17.8455 17.6467 17.8455 17.6467 17.8658 18.0227C17.8813 18.3301 17.9108 18.6342 17.9506 18.9398L17.974 19.1141C18.092 20.0082 18.2201 20.9013 18.3485 21.7942C18.4724 22.6541 18.591 23.5137 18.6854 24.3766C18.7397 24.887 18.8052 25.3942 18.8845 25.9019C19.0015 26.6489 19.0981 27.3976 19.1928 28.1469C19.2099 28.2838 19.2272 28.4206 19.2445 28.5576C19.2958 28.9611 19.3468 29.3645 19.3977 29.768C18.5047 29.7668 17.6117 29.7658 16.7186 29.7653C16.284 29.765 15.8494 29.7647 15.4149 29.764C15.0335 29.7635 14.6521 29.7631 14.2708 29.7628C14.1088 29.7628 13.9467 29.7628 13.7847 29.7627C13.5524 29.7622 13.3201 29.7618 13.0878 29.7618H12.8726C11.9455 29.7589 11.1199 29.8356 10.2504 30.1369C10.0178 30.2214 9.80356 30.284 9.55697 30.3249C9.19988 29.845 8.78445 29.4538 8.32219 29.0544C8.26878 29.0085 8.21522 28.9626 8.16167 28.9167C7.78364 28.5927 7.40611 28.2691 7.07915 27.9025C6.82269 27.6066 6.55206 27.3426 6.23492 27.0955C5.89931 26.8801 5.57928 26.8267 5.16936 26.8728C4.73455 27.0659 4.42546 27.3488 4.15594 27.7049C3.55877 28.5894 3.57332 29.7419 3.82661 30.7321L3.85308 30.826H3.66504C3.27274 30.9209 2.99825 31.08 2.78971 31.3928C2.61993 31.8037 2.65788 32.2769 2.82668 32.6842C3.05866 33.1211 3.32848 33.5327 3.84132 33.7352L3.97843 33.7769L3.95912 33.8034C3.82231 33.9906 3.6862 34.1767 3.63981 34.3987C3.63085 34.8558 3.83327 35.1732 4.16647 35.503C4.78455 36.0486 5.56282 36.2009 6.405 36.2225L6.611 36.2269C6.5838 36.9118 6.5838 36.9118 6.73057 38.4793C6.74138 38.5943 6.75215 38.7092 6.7628 38.8242C6.92698 40.6001 7.12127 42.3679 7.40724 44.1319C7.45666 44.4357 7.50524 44.7397 7.55238 45.0438L7.57373 45.182C7.6015 45.3613 7.62925 45.5406 7.65698 45.72L7.66764 45.7892C7.72874 46.1863 7.78984 46.5832 7.86436 46.9784C7.89799 47.1529 7.931 47.3275 7.96241 47.5024C7.98719 47.642 8.01222 47.7817 8.03746 47.9212L8.07615 48.135C8.1647 48.6407 8.2776 49.1261 8.44235 49.6158L8.49141 49.7567C8.13362 49.7509 7.77584 49.7463 7.41801 49.7431C7.27175 49.742 7.12549 49.7408 6.97924 49.7393C6.76402 49.7357 6.54888 49.7323 6.33363 49.7307L6.12865 49.7295C5.94243 49.7255 5.75887 49.7246 5.57281 49.7326C5.31977 49.7726 5.21116 49.8644 5.04399 50.0351C5.01609 50.2157 5.01498 50.3177 5.10668 50.4805C5.35042 50.7007 5.49696 50.7903 5.85809 50.7949L6.00246 50.7925C6.16783 50.7932 6.33308 50.7935 6.49843 50.7922C6.62034 50.7912 6.74224 50.7906 6.86415 50.7906C7.20053 50.791 7.53688 50.7904 7.87325 50.7885C8.24094 50.7866 8.6086 50.7857 8.97628 50.7852C9.69653 50.7846 10.4168 50.7827 11.137 50.7797C11.7704 50.7772 12.4037 50.7751 13.037 50.7738L13.1641 50.7735L13.803 50.7721C15.3116 50.769 16.8202 50.7649 18.3287 50.7597C19.7966 50.7546 21.2646 50.7502 22.7326 50.7469L22.8697 50.7466L23.9628 50.7441C25.5348 50.7405 27.1069 50.7363 28.6791 50.732L29.4391 50.7299C30.3368 50.7276 31.2343 50.7252 32.132 50.7221L32.2852 50.7216L32.3032 50.7215C32.6175 50.7204 32.9318 50.7194 33.2461 50.7185C33.591 50.7176 33.9359 50.7167 34.2808 50.7154L34.4614 50.7146L34.6557 50.7139H34.6699C34.7739 50.7138 34.8779 50.7135 34.982 50.7132C35.0468 50.713 35.1117 50.7127 35.1765 50.7124L35.3318 50.7118C35.4951 50.7117 35.6567 50.7091 35.82 50.7032C36.006 50.6206 36.0854 50.5252 36.196 50.3692C36.2006 50.1391 36.1835 50.0266 36.0039 49.8577C35.8115 49.7521 35.6831 49.7307 35.4588 49.729L35.3183 49.7314C35.161 49.7313 35.0038 49.7315 34.8466 49.7332C34.7344 49.7344 34.6221 49.7351 34.5099 49.7356C34.2156 49.7362 33.9214 49.7375 33.6271 49.7399C33.3223 49.7424 33.0174 49.744 32.7126 49.7452C32.1196 49.7473 31.5266 49.7507 30.9336 49.7552L30.7429 49.7567C30.8509 49.5212 30.9261 49.2907 30.9939 49.0438L31.0406 48.8694C31.2047 48.2595 31.3484 47.6469 31.4839 47.0317L31.5041 46.9397C31.5544 46.7099 31.6049 46.4802 31.6603 46.2513C31.8582 45.4588 32.0124 44.6636 32.1532 43.8618C32.2726 43.1797 32.3931 42.4995 32.545 41.8225C32.6371 41.4129 32.7209 41.0042 32.7879 40.5905C32.8147 40.4163 32.842 40.2423 32.874 40.0686C33.0579 39.279 33.1437 38.4914 33.2226 37.6884C33.2421 37.4902 33.2617 37.2918 33.2821 37.0936L33.3012 36.9063L33.3183 36.7263L33.3354 36.5594C33.35 36.4106 33.3653 36.3016 33.4368 36.1662C33.4679 36.0679 33.4953 35.9863 33.5198 35.9131C33.674 35.4537 33.7181 35.3221 33.8494 33.4454C33.8518 33.4058 33.8397 33.3692 33.8278 33.333C33.8158 33.297 33.804 33.2612 33.8063 33.2226C33.808 33.1969 33.8138 33.1629 33.8195 33.1291C33.8252 33.0959 33.8306 33.0629 33.8324 33.0382C33.8335 33.0144 33.8263 32.9788 33.8192 32.9434C33.8122 32.9085 33.8053 32.874 33.8063 32.8512C33.8087 32.8047 33.811 32.7876 33.8122 32.7782C33.8125 32.7764 33.8126 32.7748 33.8128 32.7735C33.8129 32.7723 33.813 32.7712 33.813 32.7702C33.8133 32.7648 33.8128 32.7596 33.8107 32.7426C33.8097 32.7333 33.8083 32.7206 33.8063 32.7026C33.7274 32.6121 33.76 32.561 33.7982 32.501C33.8257 32.4576 33.8563 32.4095 33.8494 32.3386L33.8324 32.145L33.8117 31.9273C33.746 31.1901 33.6578 30.459 33.5342 29.7273C33.3752 28.7919 33.2372 27.8553 33.1189 26.9151C32.9636 25.6769 32.7883 24.4426 32.5892 23.2093C32.5025 22.6734 32.4199 22.1371 32.3387 21.6006L32.2968 21.3242C32.2593 21.0766 32.2218 20.8288 32.1845 20.5811C33.2686 20.2759 34.0219 19.6023 34.6133 18.7645C35.2515 17.8099 35.6384 16.838 35.3196 15.716L35.3194 15.7158C35.2558 15.5245 35.2558 15.5245 35.2232 15.3671L35.2049 15.2463L35.1841 15.1235C35.1808 15.0089 35.1808 15.0089 35.2747 14.9323C35.7398 14.5563 35.9143 13.9062 35.9629 13.3716C35.9873 12.5485 35.723 11.9241 35.0873 11.3245C34.5538 10.8718 33.8664 10.5516 33.1169 10.5485L32.874 10.5589C32.9036 10.4267 32.9457 10.3196 33.0119 10.1977C33.235 9.82143 33.4267 9.43893 33.5983 9.04234C33.6283 8.97243 33.6584 8.90262 33.6888 8.83289C34.2507 7.64425 34.3704 6.23303 34.0585 4.97387L34.0023 4.76835C33.8096 3.98626 33.4091 3.28452 32.8251 2.673C32.0408 1.92975 31.1858 1.32701 29.9946 1.29059L29.8458 1.28843C29.7073 1.28534 29.5724 1.28643 29.4342 1.29501C28.9872 1.36643 28.635 1.61838 28.361 1.92874C27.9538 2.55878 28.165 3.3533 28.3492 4.01668C28.5497 4.72651 28.6586 5.43248 28.7371 6.16032C28.4844 6.10554 28.238 6.05324 27.9781 6.03613L27.8126 6.03852C27.4292 6.041 27.1023 6.12056 26.7416 6.22827L26.5864 6.27515L26.2777 6.36759L26.0418 6.43871C25.9944 6.02867 25.8942 5.82588 25.5796 5.50956C25.197 5.21013 24.8473 5.17422 24.3512 5.18376C23.7597 5.23421 23.2216 5.54334 22.8317 5.93019L22.7198 6.04895C22.3879 6.37294 22.151 6.70621 21.9323 7.09641C21.7497 7.44498 21.5879 7.62663 21.2154 7.83068C21.2973 6.75633 21.4042 5.7261 21.7679 4.6957L21.8423 4.48996C21.902 4.32191 21.9631 4.15468 22.0303 3.98884L22.031 3.98747C22.2247 3.55801 22.4011 3.1668 22.3731 2.69758ZM26.0995 44.1154C26.059 43.9465 26.0314 43.8324 25.8655 43.6969C25.4638 45.1881 25.0189 46.6757 24.5226 48.1479L24.4591 48.3336C24.4496 48.3616 24.4401 48.3895 24.4307 48.4176C24.3556 48.6395 24.2805 48.8614 24.182 49.0774C24.0412 49.3701 23.9708 49.6183 23.8841 49.9369H27.6346C27.6346 49.8433 27.6346 49.8002 27.6296 49.7578C27.6252 49.7217 27.6171 49.6861 27.6024 49.6201L27.5567 49.4476L27.5052 49.2524L27.4488 49.0414C27.3897 48.8181 27.3304 48.5948 27.2705 48.3717L27.2101 48.1458C27.177 48.0222 27.1443 47.8985 27.1116 47.7749C26.9856 47.2978 26.8594 46.8206 26.7133 46.3477C26.6054 46.0052 26.5005 45.6628 26.4105 45.3168C26.3895 45.2353 26.3684 45.1541 26.347 45.0728C26.3019 44.9015 26.257 44.73 26.2132 44.5584C26.1923 44.4761 26.1711 44.3941 26.1497 44.312L26.1193 44.1958C26.1121 44.1675 26.1057 44.141 26.0995 44.1155V44.1154ZM13.6207 43.7541C13.7132 43.9157 13.746 43.9948 13.7827 44.1753L13.8127 44.3219L13.8443 44.4825L13.8783 44.6517C13.991 45.2206 14.0911 45.7925 14.1909 46.3646C14.2593 46.7552 14.3308 47.1439 14.4133 47.5308C14.5115 48.0041 14.5863 48.4816 14.6599 48.9609L14.6955 49.1924C14.7556 49.5914 14.7721 49.7006 14.7766 49.8104C14.7783 49.8517 14.7783 49.8932 14.7783 49.9502H12.2001C12.2409 49.6167 12.2535 49.5139 12.2761 49.4133C12.2862 49.3686 12.2983 49.3242 12.3157 49.2601L12.3158 49.26L12.3535 49.1185L12.3941 48.9686C12.5303 48.4534 12.6509 47.9353 12.7655 47.4131C12.8529 47.0169 12.9468 46.6236 13.0452 46.2309C13.1681 45.7399 13.2752 45.2463 13.3715 44.7471C13.4379 44.4084 13.5213 44.0817 13.6207 43.7541ZM19.6793 46.9654H19.5783C19.5216 47.1699 19.4753 47.3678 19.4389 47.5832L19.4031 47.8324L19.3633 48.108L19.3227 48.3938C19.2407 48.9599 19.1707 49.5085 19.124 50.0854H20.1337C20.1337 49.806 20.108 49.5793 20.0645 49.3101L20.0343 49.1288C20.0029 48.9358 19.9714 48.743 19.9395 48.5503C19.9175 48.4162 19.8954 48.2821 19.8735 48.1481C19.809 47.7538 19.7444 47.3596 19.6793 46.9654Z" fill="white"/>
<path id="Vector_2" fill-rule="evenodd" clip-rule="evenodd" d="M22.3731 2.67706C22.2836 2.20048 21.9893 1.87493 21.5794 1.56958C19.9381 0.57265 17.7536 1.81052 16.747 3.00397L16.6399 3.13315C16.0867 3.76355 15.707 4.48356 15.4996 5.26047L15.4489 5.47166C15.1053 6.81943 15.1571 8.31753 15.7791 9.60015C15.8352 9.71072 15.8908 9.82115 15.9436 9.93297C16.2254 10.5308 16.5788 11.0587 16.9924 11.5928L17.1322 11.7678L17.2613 11.9319C17.2764 11.9508 17.2913 11.9685 17.3054 11.9855C17.3956 12.0931 17.4608 12.1711 17.4367 12.3193C17.392 12.4315 17.392 12.4315 17.3791 12.5692L17.3722 12.7212L17.3641 12.8865L17.3568 13.0579C17.349 13.2211 17.3413 13.3843 17.3341 13.5475L17.3294 13.6564C17.2782 13.6791 17.2443 13.6942 17.2124 13.713C17.1499 13.7498 17.0953 13.8009 16.9337 13.9522C16.4337 14.4579 16.2892 14.9299 16.3092 15.5912C16.3596 16.1218 16.6834 16.7033 17.1413 17.0528C17.3118 17.1332 17.4745 17.212 17.6342 17.3085C17.8455 17.6262 17.8455 17.6262 17.8658 18.0021C17.8813 18.3096 17.9108 18.6137 17.9506 18.9194L17.974 19.0936C18.092 19.9877 18.2201 20.8808 18.3485 21.7737C18.4724 22.6336 18.591 23.4931 18.6854 24.356C18.7397 24.8664 18.8052 25.3736 18.8845 25.8814C19.0015 26.6283 19.0981 27.3769 19.1928 28.1265C19.2099 28.2633 19.2272 28.4001 19.2445 28.537C19.2958 28.9405 19.3468 29.344 19.3977 29.7475C18.5047 29.7463 17.6117 29.7453 16.7186 29.7447C16.284 29.7444 15.8494 29.7441 15.4149 29.7435C15.0335 29.7429 14.6521 29.7425 14.2708 29.7423C14.1088 29.7423 13.9467 29.7422 13.7847 29.7422C13.5524 29.7417 13.3201 29.7413 13.0878 29.7411L12.8726 29.7413C11.9455 29.7385 11.1199 29.8151 10.2504 30.1164C10.0178 30.2008 9.80356 30.2635 9.55697 30.3044C9.19988 29.8245 8.78445 29.4332 8.32219 29.0339C8.26876 28.9879 8.21522 28.942 8.16167 28.8962L8.16164 28.8961C7.78361 28.5722 7.4061 28.2486 7.07915 27.8821C6.82269 27.5861 6.55206 27.322 6.23492 27.075C5.89931 26.8596 5.57928 26.8061 5.16936 26.8523C4.73455 27.0453 4.42546 27.3283 4.15594 27.6845C3.55877 28.5689 3.57332 29.7214 3.82661 30.7116L3.85308 30.8055H3.66504C3.27274 30.9003 2.99825 31.0596 2.78971 31.3723C2.61993 31.7831 2.65788 32.2565 2.82668 32.6637C3.05866 33.1006 3.32848 33.5122 3.84132 33.7147L3.97843 33.7564L3.95913 33.7829C3.82233 33.9699 3.6862 34.1562 3.63981 34.3782C3.63085 34.8354 3.83327 35.1526 4.16647 35.4824C4.78455 36.0281 5.56282 36.1804 6.405 36.2021L6.611 36.2062C6.5838 36.8913 6.5838 36.8913 6.73057 38.4589C6.74138 38.5737 6.75215 38.6887 6.7628 38.8036C6.92698 40.5796 7.12127 42.3473 7.40724 44.1114C7.45666 44.4152 7.50524 44.7192 7.55238 45.0233L7.57373 45.1614C7.6015 45.3408 7.62925 45.5202 7.65698 45.6995L7.66767 45.7689C7.72877 46.1659 7.78984 46.5627 7.86436 46.9579C7.89799 47.1325 7.931 47.307 7.96241 47.4819C7.98719 47.6216 8.01222 47.7612 8.03746 47.9007L8.07615 48.1145C8.1647 48.6201 8.2776 49.1056 8.44235 49.5953L8.49141 49.7362C8.13362 49.7304 7.77584 49.7256 7.418 49.7227C7.27175 49.7215 7.12549 49.7201 6.97924 49.7188C6.76402 49.7152 6.54888 49.7118 6.33363 49.7102L6.12865 49.709C5.94243 49.705 5.75887 49.7039 5.57281 49.712C5.31977 49.7521 5.21116 49.8439 5.04399 50.0146C5.01609 50.1953 5.01498 50.297 5.10668 50.46C5.35042 50.6802 5.49696 50.7698 5.85809 50.7744L6.00246 50.772C6.16783 50.7728 6.33308 50.7731 6.49843 50.7717C6.62034 50.7707 6.74224 50.7701 6.86415 50.7701C7.20053 50.7705 7.53688 50.7699 7.87325 50.768C8.24094 50.7659 8.6086 50.7652 8.97628 50.7647C9.69653 50.764 10.4168 50.7621 11.137 50.7592C11.7704 50.7567 12.4037 50.7546 13.037 50.7532L13.1641 50.753L13.803 50.7517C15.3116 50.7486 16.8202 50.7442 18.3287 50.7392C19.7966 50.7341 21.2646 50.7297 22.7326 50.7263L22.8697 50.726L23.9628 50.7236C25.5348 50.7199 27.1069 50.7159 28.6791 50.7116L29.4391 50.7095C30.3368 50.7071 31.2343 50.7046 32.132 50.7016L32.2852 50.7012L32.3033 50.701C32.6175 50.7 32.9318 50.6988 33.2461 50.698C33.591 50.6971 33.9359 50.6961 34.2808 50.6949L34.5386 50.6939L34.6557 50.6934C34.8293 50.6931 35.0029 50.6927 35.1765 50.6919L35.3318 50.6912C35.4951 50.6912 35.6567 50.6887 35.82 50.6827C36.006 50.6001 36.0854 50.5047 36.196 50.3486C36.2006 50.1186 36.1835 50.006 36.0039 49.8372C35.8115 49.7314 35.6831 49.71 35.4588 49.7085L35.3183 49.7109C35.161 49.7108 35.0038 49.7111 34.8466 49.7127C34.7344 49.7139 34.6221 49.7146 34.5099 49.7151C34.2156 49.7157 33.9214 49.717 33.6271 49.7194C33.3223 49.7219 33.0174 49.7236 32.7126 49.7246C32.1196 49.7268 31.5266 49.7302 30.9336 49.7347L30.7429 49.7362C30.8509 49.5007 30.9261 49.2703 30.9939 49.0233L31.0406 48.8488C31.2047 48.239 31.3484 47.6265 31.4839 47.0111L31.5039 46.9194L31.5041 46.9188C31.5545 46.6891 31.6049 46.4596 31.6603 46.2308C31.8582 45.4382 32.0124 44.6432 32.1532 43.8412C32.2726 43.1592 32.3931 42.4789 32.545 41.802C32.6371 41.3924 32.7209 40.9835 32.7879 40.5701C32.8147 40.3958 32.842 40.2217 32.874 40.0481C33.0579 39.2585 33.1437 38.4708 33.2226 37.6679C33.2421 37.4695 33.2617 37.2713 33.2821 37.0731L33.3012 36.8858L33.3183 36.7057L33.3354 36.5389C33.35 36.39 33.3653 36.2811 33.4368 36.1456C33.4705 36.0262 33.4999 35.9308 33.5263 35.8454C33.6607 35.41 33.7162 35.2304 33.8435 33.4116C33.8435 33.3841 33.843 33.352 33.8425 33.3184C33.8415 33.2467 33.8402 33.1682 33.8435 33.1155L33.8536 32.9651L33.8604 32.8259C33.864 32.7566 33.8637 32.754 33.8622 32.7429C33.8611 32.7343 33.8593 32.7207 33.8582 32.6687C33.8575 32.6378 33.8592 32.6044 33.8611 32.5673C33.8647 32.4952 33.8692 32.4086 33.8582 32.2973C33.8552 32.2642 33.8566 32.2429 33.858 32.2218C33.8595 32.201 33.8609 32.1804 33.8582 32.1487C33.8546 32.1115 33.8563 32.0734 33.858 32.0357C33.8598 31.9985 33.8615 31.9615 33.8582 31.9259C33.7992 31.2655 33.6851 30.5947 33.5732 29.9361C33.5602 29.8596 33.5472 29.783 33.5342 29.7068C33.3752 28.7714 33.2372 27.8348 33.1189 26.8947C32.9636 25.6565 32.7883 24.4221 32.5892 23.1889C32.5025 22.653 32.4199 22.1166 32.3387 21.58L32.2968 21.3038C32.2593 21.0561 32.2218 20.8083 32.1845 20.5606C33.2686 20.2555 34.0219 19.5818 34.6133 18.744C35.2515 17.7895 35.6384 16.8175 35.3196 15.6955L35.3194 15.6954C35.2558 15.504 35.2558 15.504 35.2232 15.3465L35.2049 15.2259L35.1841 15.103C35.1825 15.0474 35.1817 15.0188 35.1919 14.9953C35.2029 14.9703 35.2264 14.9513 35.2747 14.9118C35.7398 14.5358 35.9143 13.8857 35.9629 13.3511C35.9873 12.528 35.723 11.9036 35.0873 11.304C34.5538 10.8513 33.8664 10.5311 33.1169 10.528L32.874 10.5384C32.9036 10.4062 32.9457 10.2991 33.0119 10.1772C33.235 9.80093 33.4267 9.41843 33.5983 9.02182C33.6283 8.95193 33.6584 8.88211 33.6888 8.81238C34.2507 7.62374 34.3704 6.21251 34.0585 4.95337L34.0023 4.74784C33.8096 3.96576 33.4091 3.26401 32.8251 2.65249C32.0408 1.90923 31.1858 1.30651 29.9946 1.27008L29.8458 1.26792C29.7073 1.26483 29.5724 1.26593 29.4342 1.2745C28.9872 1.34592 28.635 1.59787 28.361 1.90822C27.9538 2.53827 28.165 3.3328 28.3492 3.99617C28.5497 4.70602 28.6586 5.41197 28.7371 6.1398C28.4844 6.08503 28.238 6.03273 27.9781 6.01561L27.8126 6.018C27.4292 6.0205 27.1023 6.10005 26.7416 6.20778L26.5864 6.25465L26.2777 6.34708L26.0418 6.4182C25.9944 6.00815 25.8942 5.80538 25.5796 5.48906C25.197 5.18963 24.8473 5.15372 24.3512 5.16326C23.7597 5.21371 23.2216 5.52283 22.8317 5.9097L22.7198 6.02845C22.3879 6.35244 22.151 6.68571 21.9323 7.07591C21.7497 7.42449 21.5879 7.60611 21.2154 7.81016C21.2973 6.73583 21.4042 5.70559 21.7679 4.6752L21.8423 4.46944C21.902 4.3014 21.9631 4.13416 22.0303 3.96834L22.031 3.96696C22.2247 3.53752 22.4011 3.14628 22.3731 2.67706ZM18.7235 2.49111L18.8963 2.40934C19.1809 2.26894 19.4541 2.1503 19.7816 2.11768C19.8074 2.1163 19.8332 2.11486 19.8592 2.11341C20.2892 2.08945 20.724 2.06523 21.0715 2.32082L21.1685 2.41282L21.2673 2.50177C21.3902 3.10566 21.3902 3.10566 21.153 3.70609C21.0862 3.8847 21.021 4.06362 20.9568 4.24292L20.9183 4.35047C20.7884 4.71139 20.6706 5.07106 20.5745 5.44012L20.5261 5.6387C20.1934 6.88349 20.0078 8.97486 20.714 10.1487C20.9203 10.2097 21.0094 10.1932 21.2154 10.1487C21.2153 9.9873 21.2164 9.82608 21.2195 9.66473L21.2233 9.4666L21.2228 9.27108C21.2235 9.24419 21.2239 9.21834 21.2244 9.19341C21.2285 8.95251 21.2313 8.79723 21.4471 8.61077L21.6542 8.53399L21.8374 8.45287C21.8635 8.44172 21.8891 8.4311 21.9137 8.42079C22.1494 8.32235 22.3192 8.25148 22.4298 8.01896C22.4748 7.77957 22.5692 7.605 22.6945 7.39127C23.0371 6.85388 23.598 6.26509 24.2867 6.08412C24.5936 6.03643 24.7811 6.04234 25.0429 6.19896C25.1756 6.35452 25.1756 6.35452 25.1995 6.53303C25.1279 6.97874 24.9791 7.35956 24.6824 7.72665C24.5435 7.88521 24.4505 8.00016 24.4122 8.19991C24.7669 8.16786 24.9887 8.09557 25.2724 7.89849C26.1419 7.27354 27.0824 6.82146 28.2357 6.9193C28.4815 6.99211 28.5786 7.07065 28.7371 7.25338C28.7955 7.43327 28.7945 7.57434 28.7371 7.75449C28.2857 8.15061 28.2857 8.15061 27.6754 8.34607C27.4963 8.40084 27.3409 8.45789 27.1701 8.53399C27.1072 8.68492 27.1072 8.68494 27.1074 8.81238L27.2066 8.86697C27.6585 9.03628 28.2329 8.94993 28.6781 8.79846C28.8715 8.73209 29.0308 8.70432 29.2385 8.70103C29.7884 8.84521 30.2968 9.16277 30.6803 9.53621C30.4366 9.60956 30.2139 9.68665 29.9869 9.79371C29.8501 9.94246 29.8429 9.98072 29.8497 10.1661C29.8895 10.3857 29.9734 10.4889 30.1552 10.6393C30.2791 10.7221 30.2791 10.7221 30.3668 10.8168C30.3545 10.9379 30.3545 10.9379 30.3041 11.0395L29.8654 11.0952L29.9358 11.1822L30.0534 11.3179C30.2611 11.5601 30.4877 11.7563 30.7547 11.9478C31.0025 12.1234 31.2415 12.3039 31.4755 12.4941L31.5064 12.5193C31.6489 12.6358 31.7913 12.7522 31.9367 12.8658C32.1868 13.0582 32.4316 13.2548 32.6742 13.4546C32.9259 13.6624 33.1841 13.8569 33.4537 14.0462C33.6231 14.1577 33.6232 14.1577 33.7514 14.2689V14.4359C33.7229 14.4446 33.6945 14.4531 33.6659 14.4616C33.3067 14.5692 32.9575 14.6738 32.6664 14.8987L32.4979 15.0483C32.2321 14.8344 31.9638 14.6874 31.6244 14.5821C31.1824 14.4711 30.4063 14.4012 29.9908 14.5473C29.9825 14.7081 29.9776 14.8456 30.0337 14.9997C30.2865 15.3204 30.2865 15.3204 31.021 15.4625L31.0461 15.4673C31.339 15.5229 31.6017 15.5728 31.8425 15.7411C32.0072 15.8935 32.0456 15.9825 32.0581 16.192L32.0591 16.329C32.0607 16.3875 32.0652 16.4489 32.0697 16.5118C32.0858 16.7346 32.1031 16.9747 31.9965 17.1641C31.6197 17.3283 31.2153 17.3421 30.8183 17.223C30.3671 17.0344 30.1644 16.8423 29.9946 16.4265C29.9669 16.3492 29.9538 16.3125 29.9365 16.2782C29.9208 16.247 29.9018 16.2177 29.8654 16.162C29.7135 16.1102 29.7135 16.1102 29.5519 16.1063C29.4464 16.1665 29.3944 16.196 29.3468 16.2315C29.3008 16.266 29.2587 16.306 29.1759 16.3847C29.1571 16.4444 29.1449 16.4838 29.143 16.5236C29.1397 16.6 29.1749 16.6783 29.2777 16.9067C29.5762 17.4657 30.11 17.8605 30.7612 18.0721C31.1876 18.1692 31.5913 18.1651 31.9925 17.9994C32.193 17.9091 32.3312 17.8473 32.5605 17.888C32.6295 17.9233 32.6504 17.9493 32.6689 17.9724C32.6918 18.0006 32.7108 18.0244 32.8114 18.0551C33.2192 18.1154 33.6101 18.0278 33.9988 17.9245L34.1276 17.888C33.9941 18.2438 33.6643 18.5672 33.3784 18.84C32.2892 19.7322 30.8727 20.0449 29.4355 20.0237C29.3242 20.022 29.2128 20.0209 29.1016 20.0203C28.9907 20.0198 28.8799 20.0192 28.7691 20.0185L28.6097 20.017C28.3293 20.0148 28.0541 20.0073 27.7757 19.9755C27.5462 19.9481 27.5462 19.9481 27.3233 19.9408L27.1153 19.9412C27.0892 19.9411 27.0641 19.9408 27.0397 19.9405C26.8829 19.9387 26.7561 19.9371 26.606 20.0038C26.6507 20.1336 26.7036 20.2553 26.7664 20.3792C26.8956 20.559 27.0288 20.6138 27.2528 20.6804L27.4208 20.7276C27.9835 20.8952 28.5157 20.9153 29.1028 20.912C29.2711 20.9104 29.4394 20.9086 29.6078 20.908C29.7193 20.9078 29.8308 20.9074 29.9423 20.9069L30.1031 20.9059C30.4037 20.9046 30.6993 20.8955 30.9983 20.8661L31.2443 20.839C31.3018 21.1987 31.3592 21.5584 31.4165 21.9181L31.4169 21.9211L31.4174 21.9241L31.4178 21.9269C31.4409 22.0723 31.4641 22.2178 31.4872 22.3632C31.5009 22.4485 31.5146 22.5337 31.5283 22.6189L31.5294 22.6267C31.6394 23.3107 31.7491 23.9946 31.8315 24.6817C31.8703 25.0091 31.9134 25.3359 31.9584 25.6627L31.9886 25.8778C32.0561 26.361 32.1272 26.8433 32.2129 27.324C32.4688 28.7456 32.6625 30.1748 32.8141 31.6079L32.8309 31.7659C32.8356 31.8085 32.8402 31.8512 32.845 31.8939C32.9399 32.7576 33.0384 33.6536 32.8699 34.5116L32.8388 34.6473C32.4629 36.3655 31.496 37.9231 30.2715 39.2776C30.2123 39.3429 30.1536 39.4082 30.0952 39.4738L30.0747 39.4968C29.7699 39.8394 29.4615 40.1862 29.0704 40.4546C29.0305 40.4815 28.9901 40.5083 28.9496 40.5352L28.9494 40.5353C28.7162 40.69 28.478 40.848 28.2983 41.0504C28.2928 41.0721 28.2875 41.0922 28.2826 41.1109C28.2399 41.2721 28.2241 41.3313 28.3046 41.5087C28.3219 41.5469 28.4056 41.635 28.4489 41.6573C28.4813 41.6741 28.5066 41.687 28.5285 41.6983C28.5396 41.704 28.55 41.7092 28.56 41.7142C28.5663 41.7175 28.5726 41.7206 28.5788 41.7237C28.6286 41.7485 28.6788 41.7723 28.7998 41.8298C29.0259 41.8059 31.1896 39.8745 31.999 38.6392L32.0591 38.5447C32.1272 38.7262 32.1092 38.8431 32.0764 39.0291L32.0523 39.1577C32.0272 39.2973 32.002 39.4369 31.9762 39.5764C31.9586 39.6714 31.9413 39.7664 31.9241 39.8614C31.8449 40.301 31.764 40.7403 31.6756 41.1786C31.6055 41.5246 31.5395 41.871 31.4792 42.2185L31.4521 42.3755C31.4153 42.5892 31.3787 42.8028 31.3422 43.0164C31.2372 43.6358 31.1296 44.253 30.9875 44.8668C30.9148 45.1786 30.8492 45.4885 30.8011 45.8044C30.7531 46.1238 30.6866 46.4369 30.6104 46.752L30.5627 46.9453C30.4271 47.5079 30.2733 48.064 30.1161 48.6226H27.985C27.7712 48.0203 27.6095 47.4315 27.4912 46.8093C27.4407 46.5395 27.3889 46.2702 27.3362 46.0008L27.3031 45.8331C27.1912 45.2645 27.0689 44.6983 26.9357 44.1333L26.9037 43.9978C26.7981 43.5425 26.6364 43.1429 26.4645 42.7177L26.4643 42.7175V42.7174C26.432 42.6374 26.3993 42.5568 26.3665 42.4745C26.3077 42.3266 26.2852 42.2516 26.2852 42.1773C26.2852 41.9583 26.2852 41.8635 26.2905 41.769C26.2945 41.6968 26.3016 41.6249 26.3143 41.4979L26.3144 41.4969C26.3201 41.4397 26.3268 41.3713 26.3351 41.2868C26.3737 41.043 26.4228 40.8116 26.4715 40.5827C26.5416 40.2527 26.6107 39.9276 26.6458 39.5773C26.5751 39.5773 26.5315 39.5558 26.3766 39.479L26.3665 39.4739L26.1594 39.38L25.9512 39.286C25.9105 39.2674 25.8876 39.2564 25.8648 39.2456L25.8647 39.2454C25.842 39.2347 25.8195 39.2239 25.7803 39.2059C25.7882 39.4546 25.7826 39.6892 25.7323 39.9354L25.7061 40.0566C25.6783 40.1911 25.6502 40.3255 25.6216 40.4598C25.6013 40.5549 25.5811 40.6501 25.561 40.7452C25.264 42.1547 24.9509 43.5663 24.5297 44.9513C24.4519 45.2019 24.3808 45.453 24.3152 45.7063L24.3035 45.7521C24.2331 46.0255 24.1631 46.2971 24.0596 46.5625C24.0001 46.7114 23.9521 46.8569 23.9146 47.0114C23.8661 47.2151 23.8143 47.4177 23.7591 47.6201L23.7266 47.7388L23.6966 47.8516L23.6662 47.9619H23.666C23.5602 48.2656 23.5602 48.2656 23.4093 48.5669H21.8109H20.7453C20.6938 48.5041 20.6572 48.4613 20.6302 48.4299C20.5905 48.3836 20.5721 48.3619 20.5585 48.3372C20.5468 48.3157 20.5389 48.2919 20.524 48.2472C20.5113 48.2087 20.4936 48.1549 20.4637 48.074L20.4007 47.8988C20.2505 47.4832 20.1126 47.0699 20.0128 46.6425C19.9512 46.3743 19.8833 46.1152 19.7865 45.8546C19.5962 45.3493 19.4719 44.8375 19.3545 44.3154L19.3524 44.3066C19.3174 44.1475 19.2823 43.9884 19.2454 43.8296C19.0866 43.1508 18.95 42.4701 18.8275 41.7854C18.7952 41.6034 18.7629 41.4214 18.7302 41.2394L18.7188 41.1759C18.6208 40.6329 18.523 40.0899 18.4424 39.5446L18.3949 39.2129L17.4547 39.2686C17.4898 39.5375 17.5328 39.8025 17.5897 40.0685C17.6088 40.1557 17.6275 40.2429 17.646 40.3301C17.6761 40.4716 17.7064 40.6132 17.7367 40.7546C17.8668 41.3544 17.9883 41.942 18.0187 42.5536C17.7252 42.5548 17.4316 42.5557 17.1381 42.5563C17.0163 42.5566 16.8947 42.5569 16.773 42.5571C15.9315 42.5606 15.098 42.5465 14.258 42.4979L14.3833 41.4958H13.5685C13.4462 41.8432 13.4462 41.8432 13.2943 42.578C13.1969 43.0526 13.0823 43.5207 12.9475 43.9878C12.9129 44.1073 12.8782 44.2269 12.844 44.3465C12.5802 45.2697 12.3144 46.1926 12.0416 47.1138L11.978 47.3281C11.8432 47.788 11.6924 48.1965 11.5001 48.6402C11.3562 48.6402 11.2547 48.6319 11.1505 48.6232C11.0977 48.6189 11.0442 48.6146 10.9842 48.6112L10.7584 48.605C10.6344 48.6014 10.5104 48.5978 10.3864 48.5947C10.3004 48.5923 10.2144 48.5901 10.1283 48.5877C9.87521 48.5804 9.62207 48.5736 9.36893 48.5669H9.24356C9.15622 48.4506 9.13031 48.3892 9.09569 48.3072C9.07913 48.268 9.06058 48.224 9.03235 48.1671L9.00288 48.0264C8.96995 47.8741 8.93724 47.7217 8.90516 47.5693L8.8714 47.4081C8.65515 46.3863 8.46781 45.3716 8.36604 44.3353C8.32674 43.9215 8.27514 43.5112 8.20935 43.0999L8.2093 43.0996C8.07241 42.1012 8.00399 41.6023 7.94717 41.102C7.8904 40.6022 7.84519 40.1009 7.75482 39.0989L7.73924 38.9346C7.63619 37.8512 7.5365 36.7695 7.53535 35.6816L7.53553 35.5625C7.53656 34.6618 7.62738 33.8471 8.04114 33.0134L8.11532 32.8656C8.26906 32.4815 8.5647 32.1652 8.86749 31.8633C10.2209 30.7168 11.8125 30.6119 13.5841 30.6207C13.8219 30.622 14.0597 30.6225 14.2976 30.6228C14.7475 30.6231 15.1975 30.6241 15.6474 30.6259C16.1631 30.6277 16.6788 30.6289 17.1945 30.6298C18.2609 30.6315 19.3273 30.6342 20.3938 30.6379L20.5261 30.6384C20.4975 30.4501 20.4689 30.2617 20.4405 30.0735L20.4053 29.8401C20.3179 29.2627 20.2363 28.6852 20.1673 28.106C20.0346 26.9816 19.8769 25.8608 19.7112 24.7399C19.5465 23.6268 19.3915 22.5136 19.2617 21.3966C19.2555 21.3424 19.2493 21.288 19.2431 21.2337C19.2001 20.8563 19.1573 20.4795 19.0824 20.1055C19.014 19.7644 18.9778 19.4215 18.9438 19.0765C18.9318 18.9517 18.9197 18.8269 18.9072 18.7021C18.8604 18.2444 18.8223 17.7914 18.8336 17.3313L18.9549 17.2762L19.1118 17.2025C19.1283 17.1949 19.1439 17.1878 19.1586 17.1809C19.3321 17.1016 19.3892 17.0756 19.4605 16.8859C19.1218 16.8634 18.7857 16.8321 18.4613 16.7398C18.0047 16.586 17.6082 16.3922 17.3827 15.9928C17.2715 15.6494 17.2359 15.2057 17.3839 14.8683C17.7529 14.3557 18.2455 14.059 18.9044 13.9039L19.0217 13.8791L19.0101 13.7493C18.9589 13.6007 18.9589 13.6007 18.8157 13.5201C18.6339 13.4481 18.4854 13.38 18.3322 13.2667C18.3098 13.1318 18.2984 13.0633 18.2981 12.9947C18.2977 12.9241 18.3091 12.8534 18.3322 12.7099H18.9589C18.8963 12.5428 18.8963 12.5428 18.8118 12.4487C17.2947 10.9782 16.222 9.09951 16.2351 7.07377L16.2363 6.95759C16.239 6.40083 16.2514 5.85294 16.3995 5.30887C16.7524 4.16033 17.5491 3.09742 18.7235 2.49111ZM26.059 44.1358C26.0218 43.9679 25.9967 43.8547 25.8445 43.7201C25.4762 45.2007 25.0686 46.6781 24.6135 48.1399L24.5555 48.3243C24.5467 48.3521 24.538 48.3799 24.5294 48.4077C24.4606 48.628 24.3918 48.8483 24.3015 49.0629C24.1724 49.3535 24.1079 49.5999 24.0284 49.9163H27.4661C27.4661 49.8231 27.4661 49.7805 27.4614 49.7383C27.4575 49.7025 27.4501 49.6671 27.4365 49.6017L27.3946 49.4304L27.3474 49.2365L27.2958 49.0271C27.2415 48.8054 27.1871 48.5836 27.1323 48.362L27.0769 48.1379C27.0466 48.0151 27.0166 47.8923 26.9866 47.7694V47.7692C26.8711 47.2957 26.7556 46.822 26.6215 46.3523C26.5226 46.0122 26.4265 45.6722 26.344 45.3287C26.3248 45.2478 26.3054 45.1672 26.2859 45.0863C26.2445 44.9162 26.2034 44.746 26.1633 44.5756C26.1439 44.494 26.1246 44.4124 26.105 44.3309L26.0772 44.2154C26.0705 44.1875 26.0646 44.1609 26.059 44.1358ZM13.6207 43.7537C13.7132 43.9153 13.746 43.9943 13.7827 44.1749L13.8127 44.3215L13.8443 44.4821L13.8783 44.6513C13.991 45.2202 14.0911 45.7921 14.1909 46.3642C14.2593 46.7548 14.3308 47.1435 14.4133 47.5303C14.5115 48.0037 14.5863 48.4812 14.6599 48.9605L14.6955 49.192C14.7783 49.7414 14.7783 49.7414 14.7783 49.9498H12.2001C12.2409 49.6163 12.2535 49.5135 12.2761 49.4129C12.2862 49.3682 12.2983 49.3237 12.3157 49.2597L12.3158 49.2596L12.3535 49.1181L12.3941 48.9682C12.5303 48.453 12.6509 47.9349 12.7655 47.4127C12.8529 47.0164 12.9468 46.6232 13.0452 46.2305C13.1681 45.7395 13.2752 45.2459 13.3715 44.7467C13.4379 44.408 13.5213 44.0813 13.6207 43.7537ZM19.6891 47.2938H19.6031C19.5548 47.4678 19.5154 47.6361 19.4844 47.8195L19.4539 48.0316L19.4201 48.2661L19.3856 48.5094C19.3157 48.9912 19.2561 49.4582 19.2164 49.9492H20.0759C20.0759 49.7114 20.0539 49.5185 20.0169 49.2893L19.9912 49.1349C19.9645 48.9707 19.9377 48.8067 19.9105 48.6426C19.8918 48.5285 19.873 48.4143 19.8543 48.3002C19.7995 47.9646 19.7444 47.6291 19.6891 47.2938Z" fill="#7A40F2"/>
<path id="Vector_3" d="M26.6664 11.2106C26.7097 11.2343 26.753 11.2581 26.7974 11.2825C26.8436 11.3062 26.8896 11.3299 26.9371 11.3544C27.5663 11.7016 28.044 12.2052 28.3009 12.8966C28.458 13.5419 28.3911 14.2992 28.0886 14.8848C27.6818 15.5537 27.1367 16.0284 26.3927 16.2416C25.7388 16.3942 25.0719 16.3041 24.4984 15.9517C23.8799 15.5489 23.4966 14.9964 23.2923 14.2772C23.1513 13.5987 23.232 12.9183 23.5841 12.3185C23.8406 11.9436 24.142 11.6638 24.5196 11.4226C24.5509 11.4023 24.5822 11.382 24.6144 11.3611C24.7439 11.2809 24.7739 11.267 24.9182 11.1927C24.9903 11.1185 24.9903 11.1185 25.0663 11.0957C25.549 10.9307 26.2099 10.9925 26.6664 11.2106Z" fill="#7A40F2"/>
<path id="Vector_4" d="M20.2346 3.10033C20.3878 3.17301 20.5068 3.25127 20.612 3.37772C20.6965 3.67204 20.6309 3.88128 20.4904 4.14921C20.328 4.47672 20.2074 4.80922 20.0996 5.15519C20.0851 5.20072 20.0706 5.24626 20.0556 5.29317C19.8264 6.04757 19.7954 6.7868 19.7973 7.56479C19.7973 7.61672 19.7973 7.66863 19.7974 7.72213C19.8003 8.76773 19.9138 9.72489 20.2954 10.7148C20.3891 10.9613 20.4375 11.167 20.4093 11.4324C20.2876 11.5207 20.2876 11.5207 20.1143 11.5955C20.0463 11.6448 19.9787 11.6947 19.9115 11.7451C19.7681 11.838 19.707 11.8668 19.5281 11.8878C19.2337 11.7659 19.0704 11.5557 18.8755 11.3236C18.8343 11.2749 18.7929 11.2262 18.7502 11.176C17.4906 9.59808 16.9911 7.7463 17.3015 5.81473C17.4569 5.04154 17.903 4.34922 18.4627 3.76517C18.4946 3.72999 18.5266 3.69479 18.5595 3.65854C18.9667 3.24123 19.623 2.88649 20.2346 3.10033Z" fill="#7A40F2"/>
<path id="Vector_5" d="M5.44609 27.8939C5.74402 28.0698 5.94127 28.2604 6.15546 28.5055C6.42217 28.8106 6.72145 29.0671 7.04637 29.3292C7.18262 29.4407 7.30868 29.5518 7.43151 29.673C7.58342 29.8186 7.73956 29.9584 7.90359 30.0947C7.94696 30.1308 7.99034 30.1667 8.03503 30.204C8.22845 30.3639 8.42215 30.5236 8.61642 30.6827C8.51757 30.8671 8.3993 30.9596 8.20867 31.0856C7.11292 31.8642 6.55063 33.1429 6.43063 34.3021C6.41405 34.4986 6.40374 34.6953 6.39719 34.8922C5.72059 34.933 5.19654 34.8472 4.63146 34.5268C4.58643 34.491 4.54139 34.4554 4.49499 34.4187C4.49936 34.2085 4.50333 34.096 4.68521 33.945C4.81174 33.9092 4.9386 33.8743 5.06565 33.8399C5.2739 33.7731 5.2739 33.7731 5.44609 33.6819C5.49061 33.5744 5.49061 33.5744 5.5095 33.4715C5.41068 33.4323 5.41068 33.4323 5.30986 33.3924C3.76563 32.7724 3.76563 32.7724 3.48049 32.1561C3.44932 31.9852 3.4572 31.8564 3.48049 31.6824C3.58594 31.5949 3.708 31.6166 3.853 31.6134C4.25161 31.6147 4.57636 31.7099 4.93884 31.8404C4.96299 31.5077 4.90079 31.2951 4.72485 30.9984C4.30832 30.279 4.18194 29.4157 4.47122 28.6404C4.90892 27.7453 4.90892 27.7453 5.44609 27.8939Z" fill="white"/>
<path id="Vector_6" d="M31.0854 2.30643C31.4097 2.44054 31.6901 2.61277 31.9698 2.80157C32.0108 2.82909 32.0516 2.8566 32.0937 2.88495C33.0988 3.63537 33.4694 4.75796 33.5368 5.83238C33.5681 6.6155 33.4654 7.30593 33.1746 8.05158C33.1313 8.16446 33.0929 8.27733 33.057 8.39193C32.9403 8.74819 32.8067 8.97277 32.4838 9.23173C32.3938 9.084 32.4471 9.01636 32.5048 8.85969C32.5244 8.80558 32.5441 8.75147 32.5644 8.69571C32.5855 8.63888 32.6065 8.58204 32.6283 8.52349C32.6895 8.35658 32.7503 8.18966 32.8103 8.02249C32.847 7.9222 32.8854 7.82229 32.9262 7.72309C33.1001 7.27445 33.0975 6.82506 33.0941 6.35923C33.0939 6.31711 33.0938 6.27499 33.0936 6.23158C33.0864 5.12826 32.8295 4.04327 31.8582 3.21663C31.4706 2.95299 31.0025 2.74214 30.4867 2.7783C30.271 2.8191 30.1762 2.86721 30.0425 3.01239C29.9511 3.42116 30.1532 3.75562 30.3337 4.12931C30.6264 4.73946 30.6341 5.38658 30.6361 6.03384C30.6367 6.15019 30.6387 6.26648 30.6407 6.38281C30.6453 6.91003 30.5684 7.39991 30.4279 7.91408C30.1317 7.9741 29.9472 7.94073 29.6569 7.86136C29.7855 7.65054 29.7855 7.65054 29.8533 7.55584C29.9275 7.41364 29.931 7.30417 29.93 7.14982C29.9303 7.10036 29.9307 7.05091 29.931 6.99995C29.9257 6.86222 29.9257 6.86222 29.8488 6.76412C29.7686 6.61841 29.7758 6.51513 29.7842 6.35574C29.7863 6.2971 29.7883 6.23847 29.7905 6.17806C29.7928 6.11501 29.7951 6.05196 29.7976 5.987C29.8158 5.04834 29.603 4.16483 29.3103 3.26098C29.2307 2.96751 29.1939 2.70155 29.38 2.43592C29.8971 2.05746 30.4614 2.09944 31.0854 2.30643Z" fill="white"/>
<path id="Vector_7" d="M19.8633 3.31836C19.834 3.53615 19.7703 3.72403 19.6963 3.92661C18.9877 5.90375 18.9204 8.50427 19.612 10.5049C19.6787 10.6719 19.7472 10.8362 19.8222 10.9987C19.8633 11.1177 19.8633 11.1177 19.8131 11.2849C18.6702 9.92129 18.0981 8.14804 18.1475 6.30291C18.1871 5.44614 18.3975 4.49834 18.9584 3.87546C19.5168 3.31836 19.5168 3.31836 19.8633 3.31836Z" fill="#DAC8FF"/>
<path id="Vector_8" d="M30.6855 3.02148C31.2334 3.25391 31.6252 3.79394 31.8757 4.3062C31.933 4.45313 31.9796 4.59763 32.0194 4.74995C32.0483 4.85946 32.079 4.96851 32.112 5.0769C32.2579 5.57913 32.2779 6.04983 32.2711 6.56973C32.2714 6.68683 32.2714 6.68683 32.2717 6.8063C32.2677 7.51084 32.1945 8.14127 31.8993 8.78736C31.8687 8.8568 31.8687 8.8568 31.8375 8.92764C31.7883 9.03924 31.7381 9.15041 31.6878 9.26148C31.65 9.24263 31.6122 9.22379 31.5733 9.20437C31.4332 9.13477 31.4332 9.13477 31.265 9.07414C31.1241 8.95561 31.1241 8.95561 31.108 8.84361C31.115 8.55573 31.1343 8.27286 31.1686 7.98683C31.3026 6.86151 31.3606 5.66591 31.1241 4.55089C31.1036 4.43911 31.1036 4.43911 31.0827 4.32506C31.0036 3.92049 30.9096 3.61318 30.6855 3.2662C30.6855 3.18543 30.6855 3.10468 30.6855 3.02148Z" fill="#DAC8FF"/>
<path id="Vector_9" d="M25.6092 9.88813C25.7443 10.0162 25.7443 10.0162 25.8058 10.1614C25.8058 10.4579 25.7674 10.6017 25.5969 10.8404C25.3739 11.0108 25.2903 11.0038 25.0194 10.9813C24.8897 10.94 24.7613 10.8942 24.6342 10.8447C23.8762 10.5926 23.1991 10.6494 22.4535 10.9194C22.1947 11.0051 22.0109 11.0228 21.7423 10.9813C21.5736 10.8384 21.5519 10.7401 21.5088 10.5201C21.5643 10.1858 21.7018 9.98166 21.9389 9.75149C23.0215 9.03764 24.5814 9.03865 25.6092 9.88813Z" fill="#7A40F2"/>
<path id="Vector_10" d="M26.8147 12.0143C27.1156 12.2362 27.3408 12.4949 27.5067 12.8458C27.5536 13.3214 27.5334 13.7063 27.2678 14.1087C26.9379 14.4233 26.6281 14.5149 26.1949 14.5432C25.8636 14.521 25.617 14.4071 25.3559 14.1929C25.0243 13.7526 24.9132 13.4075 24.9575 12.8458C25.0731 12.5118 25.2397 12.2923 25.4853 12.0512C25.9342 11.8315 26.3498 11.8475 26.8147 12.0143Z" fill="white"/>
<path id="Vector_11" d="M34.1466 15.4287C34.3347 15.8395 34.5247 16.3658 34.2884 16.7849C34.1038 16.9651 33.832 17.1089 33.5448 17.1814C33.3189 17.2016 33.1013 17.2079 32.8761 17.1814C32.6423 17.0062 32.7036 16.7553 32.6965 16.5179C32.692 16.4659 32.6876 16.4139 32.683 16.3604C32.6732 15.985 32.6732 15.985 32.8669 15.8299C33.0217 15.7508 33.1743 15.6878 33.3442 15.629C33.4104 15.6048 33.4765 15.5807 33.5446 15.5559C33.5985 15.5407 33.6523 15.5256 33.7078 15.51C33.7629 15.4942 33.818 15.4783 33.8747 15.462C34.0129 15.4287 34.0129 15.4287 34.1466 15.4287Z" fill="white"/>
<path id="Vector_12" d="M33.6408 11.9042C33.9758 12.0453 34.1706 12.2631 34.3277 12.6038C34.4072 12.8356 34.4144 12.9784 34.3759 13.2242C34.2342 13.4161 34.0883 13.5704 33.867 13.6442C33.5322 13.6857 33.3386 13.6389 33.0621 13.4331C32.846 13.2405 32.7335 13.0349 32.6797 12.7442C32.6797 12.4556 32.727 12.3584 32.9059 12.1442C33.1521 11.9236 33.3199 11.8514 33.6408 11.9042Z" fill="white"/>
<path id="Vector_13" d="M14.6582 43.7559C14.9094 43.7522 15.1404 43.75 15.3889 43.7828C15.6738 43.8142 15.9525 43.8235 16.2394 43.8286C16.3219 43.8304 16.3219 43.8304 16.4059 43.8322C16.5798 43.8357 16.7537 43.839 16.9275 43.8423C17.0461 43.8446 17.1646 43.847 17.2832 43.8494C17.5723 43.8553 17.8253 43.84 18.1145 43.8454C18.1866 43.8454 18.2588 43.9197 18.2588 43.9197C18.3309 43.994 18.3309 43.994 18.3485 44.0318C18.398 44.1274 18.398 44.1274 18.4329 44.2511C18.4463 44.2963 18.4595 44.3415 18.4733 44.388C18.493 44.4593 18.493 44.4593 18.5132 44.5319C18.6107 44.8729 18.6915 45.9997 18.7573 46.3711C18.7636 46.9654 18.7636 46.594 18.7636 46.8911C18.7636 46.9654 18.7636 47.114 18.7573 47.1804C18.7097 47.3451 18.6609 47.5096 18.612 47.6741C18.5951 47.7326 18.5783 47.7913 18.5608 47.8516C18.5102 48.0272 18.4584 48.2024 18.4062 48.3776C18.3902 48.4325 18.3743 48.4873 18.358 48.5438C18.3424 48.5946 18.3268 48.6453 18.3108 48.6974C18.2974 48.7423 18.284 48.7872 18.2701 48.8335C18.2166 48.9432 18.2166 48.9432 18.019 49.0536C17.8562 49.0631 17.7009 49.0665 17.5384 49.0644C17.4918 49.0642 17.4453 49.0641 17.3974 49.064C17.249 49.0632 17.1006 49.0619 16.9523 49.0605C16.8516 49.0599 16.7509 49.0595 16.6502 49.0591C16.4036 49.0577 16.1569 49.0559 15.9102 49.0536C15.9023 49.0069 15.8942 48.9602 15.886 48.9121C15.8251 48.5665 15.7536 48.2323 15.6467 47.8947C15.6047 47.7377 15.5661 47.5799 15.5273 47.4222C15.4387 47.0654 15.3474 46.7089 15.2536 46.353C15.14 45.9208 15.029 45.4902 14.9478 45.0528C14.8903 44.7478 14.8224 44.445 14.7159 44.1492C14.6582 43.9767 14.6582 43.9767 14.6582 43.7559Z" fill="white"/>
</g>
</svg>
