<svg width="59" height="28" viewBox="0 0 59 28" fill="none" xmlns="http://www.w3.org/2000/svg">
<g id="Logo">
<path id="Vector" d="M51.9062 20.664C50.6182 20.664 49.4423 20.3326 48.3783 19.67C47.3236 19.0073 46.4789 18.1206 45.8442 17.01C45.2189 15.89 44.9062 14.6533 44.9062 13.3C44.9062 12.2733 45.0883 11.3166 45.4523 10.43C45.8163 9.53396 46.3156 8.74996 46.9502 8.07796C47.5942 7.39663 48.3409 6.86463 49.1903 6.48196C50.0396 6.09929 50.9449 5.90796 51.9062 5.90796C53.1943 5.90796 54.3656 6.23929 55.4202 6.90196C56.4843 7.56463 57.3289 8.45596 57.9543 9.57596C58.5889 10.696 58.9062 11.9373 58.9062 13.3C58.9062 14.3173 58.7242 15.2693 58.3602 16.156C57.9962 17.0426 57.4923 17.8266 56.8483 18.508C56.2136 19.18 55.4716 19.7073 54.6222 20.09C53.7822 20.4726 52.8769 20.664 51.9062 20.664ZM51.9062 17.248C52.5876 17.248 53.1989 17.066 53.7402 16.702C54.2816 16.338 54.7063 15.8573 55.0143 15.26C55.3316 14.6626 55.4902 14.0093 55.4902 13.3C55.4902 12.572 55.3269 11.9093 55.0003 11.312C54.6829 10.7053 54.2489 10.2246 53.6982 9.86996C53.1569 9.50596 52.5596 9.32396 51.9062 9.32396C51.2343 9.32396 50.6276 9.50596 50.0863 9.86996C49.5449 10.234 49.1156 10.7193 48.7983 11.326C48.4809 11.9326 48.3223 12.5906 48.3223 13.3C48.3223 14.0373 48.4856 14.7046 48.8122 15.302C49.1389 15.8993 49.5729 16.3753 50.1143 16.73C50.6649 17.0753 51.2623 17.248 51.9062 17.248Z" fill="#282034"/>
<path id="Vector_2" d="M39.2905 6.30004H42.7065V20.566C42.7065 21.574 42.5012 22.4887 42.0905 23.31C41.6798 24.1407 41.1198 24.85 40.4105 25.438C39.7012 26.0354 38.8892 26.4927 37.9745 26.81C37.0598 27.1367 36.0985 27.3 35.0905 27.3C34.1105 27.3 33.1678 27.0994 32.2625 26.698C31.3572 26.2967 30.5545 25.746 29.8545 25.046C29.1638 24.3554 28.6365 23.5667 28.2725 22.68L31.3945 21.266C31.5812 21.7794 31.8612 22.2274 32.2345 22.61C32.6172 23.002 33.0558 23.3054 33.5505 23.52C34.0452 23.744 34.5585 23.856 35.0905 23.856C35.6318 23.856 36.1498 23.7814 36.6445 23.632C37.1485 23.4827 37.6012 23.2634 38.0025 22.974C38.4038 22.694 38.7165 22.3487 38.9405 21.938C39.1738 21.5367 39.2905 21.0794 39.2905 20.566V18.592C38.8518 19.208 38.3012 19.7074 37.6385 20.09C36.9758 20.4727 36.2105 20.664 35.3425 20.664C34.3345 20.664 33.3918 20.4727 32.5145 20.09C31.6372 19.7074 30.8625 19.18 30.1905 18.508C29.5278 17.8267 29.0052 17.0427 28.6225 16.156C28.2492 15.2694 28.0625 14.3174 28.0625 13.3C28.0625 12.2827 28.2492 11.3307 28.6225 10.444C29.0052 9.55737 29.5278 8.77804 30.1905 8.10604C30.8625 7.4247 31.6372 6.8927 32.5145 6.51003C33.3918 6.12737 34.3345 5.93604 35.3425 5.93604C36.2105 5.93604 36.9758 6.12737 37.6385 6.51003C38.3012 6.88337 38.8518 7.37803 39.2905 7.99403V6.30004ZM35.3845 17.374C36.1032 17.374 36.7378 17.192 37.2885 16.828C37.8485 16.4547 38.2872 15.96 38.6045 15.344C38.9218 14.7187 39.0805 14.0374 39.0805 13.3C39.0805 12.5534 38.9172 11.872 38.5905 11.256C38.2732 10.64 37.8345 10.1454 37.2745 9.77203C36.7238 9.3987 36.0938 9.21203 35.3845 9.21203C34.6845 9.21203 34.0452 9.3987 33.4665 9.77203C32.8878 10.136 32.4258 10.626 32.0805 11.242C31.7352 11.858 31.5625 12.544 31.5625 13.3C31.5625 14.056 31.7352 14.742 32.0805 15.358C32.4258 15.974 32.8878 16.464 33.4665 16.828C34.0452 17.192 34.6845 17.374 35.3845 17.374Z" fill="#282034"/>
<path id="Vector_3" d="M19.668 20.664C18.38 20.664 17.204 20.3326 16.14 19.67C15.0853 19.0073 14.2406 18.1206 13.606 17.01C12.9806 15.89 12.668 14.6533 12.668 13.3C12.668 12.2733 12.85 11.3166 13.214 10.43C13.578 9.53396 14.0773 8.74996 14.712 8.07796C15.356 7.39663 16.1026 6.86463 16.952 6.48196C17.8013 6.09929 18.7066 5.90796 19.668 5.90796C20.956 5.90796 22.1273 6.23929 23.182 6.90196C24.246 7.56463 25.0906 8.45596 25.716 9.57596C26.3506 10.696 26.668 11.9373 26.668 13.3C26.668 14.3173 26.486 15.2693 26.122 16.156C25.758 17.0426 25.254 17.8266 24.61 18.508C23.9753 19.18 23.2333 19.7073 22.384 20.09C21.544 20.4726 20.6386 20.664 19.668 20.664ZM19.668 17.248C20.3493 17.248 20.9606 17.066 21.502 16.702C22.0433 16.338 22.468 15.8573 22.776 15.26C23.0933 14.6626 23.252 14.0093 23.252 13.3C23.252 12.572 23.0886 11.9093 22.762 11.312C22.4446 10.7053 22.0106 10.2246 21.46 9.86996C20.9186 9.50596 20.3213 9.32396 19.668 9.32396C18.996 9.32396 18.3893 9.50596 17.848 9.86996C17.3066 10.234 16.8773 10.7193 16.56 11.326C16.2426 11.9326 16.084 12.5906 16.084 13.3C16.084 14.0373 16.2473 14.7046 16.574 15.302C16.9006 15.8993 17.3346 16.3753 17.876 16.73C18.4266 17.0753 19.024 17.248 19.668 17.248Z" fill="#282034"/>
<path id="Vector_4" d="M0 20.3V0.699951H3.416V16.884H11.578V20.3H0Z" fill="#282034"/>
</g>
</svg>
