<svg xmlns="http://www.w3.org/2000/svg" width="60" height="27" viewBox="0 0 60 27" fill="none">
  <path d="M52.4531 19.964C51.1651 19.964 49.9891 19.6327 48.9251 18.97C47.8705 18.3073 47.0258 17.4207 46.3911 16.31C45.7658 15.19 45.4531 13.9533 45.4531 12.6C45.4531 11.5733 45.6351 10.6167 45.9991 9.73001C46.3631 8.83401 46.8625 8.05001 47.4971 7.37801C48.1411 6.69667 48.8878 6.16467 49.7371 5.78201C50.5865 5.39934 51.4918 5.20801 52.4531 5.20801C53.7411 5.20801 54.9125 5.53934 55.9671 6.20201C57.0311 6.86467 57.8758 7.75601 58.5011 8.87601C59.1358 9.99601 59.4531 11.2373 59.4531 12.6C59.4531 13.6173 59.2711 14.5693 58.9071 15.456C58.5431 16.3427 58.0391 17.1267 57.3951 17.808C56.7605 18.48 56.0185 19.0073 55.1691 19.39C54.3291 19.7727 53.4238 19.964 52.4531 19.964ZM52.4531 16.548C53.1345 16.548 53.7458 16.366 54.2871 16.002C54.8285 15.638 55.2531 15.1573 55.5611 14.56C55.8785 13.9627 56.0371 13.3093 56.0371 12.6C56.0371 11.872 55.8738 11.2093 55.5471 10.612C55.2298 10.0053 54.7958 9.52467 54.2451 9.17001C53.7038 8.80601 53.1065 8.62401 52.4531 8.62401C51.7811 8.62401 51.1745 8.80601 50.6331 9.17001C50.0918 9.53401 49.6625 10.0193 49.3451 10.626C49.0278 11.2327 48.8691 11.8907 48.8691 12.6C48.8691 13.3373 49.0325 14.0047 49.3591 14.602C49.6858 15.1993 50.1198 15.6753 50.6611 16.03C51.2118 16.3753 51.8091 16.548 52.4531 16.548Z" fill="#282034"/>
  <path d="M39.8374 5.59996H43.2534V19.866C43.2534 20.874 43.048 21.7886 42.6374 22.61C42.2267 23.4406 41.6667 24.15 40.9574 24.738C40.248 25.3353 39.436 25.7926 38.5214 26.11C37.6067 26.4366 36.6454 26.6 35.6374 26.6C34.6574 26.6 33.7147 26.3993 32.8094 25.998C31.904 25.5966 31.1014 25.046 30.4014 24.346C29.7107 23.6553 29.1834 22.8666 28.8194 21.98L31.9414 20.566C32.128 21.0793 32.408 21.5273 32.7814 21.91C33.164 22.302 33.6027 22.6053 34.0974 22.82C34.592 23.044 35.1054 23.156 35.6374 23.156C36.1787 23.156 36.6967 23.0813 37.1914 22.932C37.6954 22.7826 38.148 22.5633 38.5494 22.274C38.9507 21.994 39.2634 21.6486 39.4874 21.238C39.7207 20.8366 39.8374 20.3793 39.8374 19.866V17.892C39.3987 18.508 38.848 19.0073 38.1854 19.39C37.5227 19.7726 36.7574 19.964 35.8894 19.964C34.8814 19.964 33.9387 19.7726 33.0614 19.39C32.184 19.0073 31.4094 18.48 30.7374 17.808C30.0747 17.1266 29.552 16.3426 29.1694 15.456C28.796 14.5693 28.6094 13.6173 28.6094 12.6C28.6094 11.5826 28.796 10.6306 29.1694 9.74396C29.552 8.8573 30.0747 8.07796 30.7374 7.40596C31.4094 6.72463 32.184 6.19263 33.0614 5.80996C33.9387 5.4273 34.8814 5.23596 35.8894 5.23596C36.7574 5.23596 37.5227 5.4273 38.1854 5.80996C38.848 6.18329 39.3987 6.67796 39.8374 7.29396V5.59996ZM35.9314 16.674C36.65 16.674 37.2847 16.492 37.8354 16.128C38.3954 15.7546 38.834 15.26 39.1514 14.644C39.4687 14.0186 39.6274 13.3373 39.6274 12.6C39.6274 11.8533 39.464 11.172 39.1374 10.556C38.82 9.93996 38.3814 9.44529 37.8214 9.07196C37.2707 8.69863 36.6407 8.51196 35.9314 8.51196C35.2314 8.51196 34.592 8.69863 34.0134 9.07196C33.4347 9.43596 32.9727 9.92596 32.6274 10.542C32.282 11.158 32.1094 11.844 32.1094 12.6C32.1094 13.356 32.282 14.042 32.6274 14.658C32.9727 15.274 33.4347 15.764 34.0134 16.128C34.592 16.492 35.2314 16.674 35.9314 16.674Z" fill="#282034"/>
  <path d="M20.2148 19.964C18.9268 19.964 17.7508 19.6327 16.6868 18.97C15.6322 18.3073 14.7875 17.4207 14.1528 16.31C13.5275 15.19 13.2148 13.9533 13.2148 12.6C13.2148 11.5733 13.3968 10.6167 13.7608 9.73001C14.1248 8.83401 14.6242 8.05001 15.2588 7.37801C15.9028 6.69667 16.6495 6.16467 17.4988 5.78201C18.3482 5.39934 19.2535 5.20801 20.2148 5.20801C21.5028 5.20801 22.6742 5.53934 23.7288 6.20201C24.7928 6.86467 25.6375 7.75601 26.2628 8.87601C26.8975 9.99601 27.2148 11.2373 27.2148 12.6C27.2148 13.6173 27.0328 14.5693 26.6688 15.456C26.3048 16.3427 25.8008 17.1267 25.1568 17.808C24.5222 18.48 23.7802 19.0073 22.9308 19.39C22.0908 19.7727 21.1855 19.964 20.2148 19.964ZM20.2148 16.548C20.8962 16.548 21.5075 16.366 22.0488 16.002C22.5902 15.638 23.0148 15.1573 23.3228 14.56C23.6402 13.9627 23.7988 13.3093 23.7988 12.6C23.7988 11.872 23.6355 11.2093 23.3088 10.612C22.9915 10.0053 22.5575 9.52467 22.0068 9.17001C21.4655 8.80601 20.8682 8.62401 20.2148 8.62401C19.5428 8.62401 18.9362 8.80601 18.3948 9.17001C17.8535 9.53401 17.4242 10.0193 17.1068 10.626C16.7895 11.2327 16.6308 11.8907 16.6308 12.6C16.6308 13.3373 16.7942 14.0047 17.1208 14.602C17.4475 15.1993 17.8815 15.6753 18.4228 16.03C18.9735 16.3753 19.5708 16.548 20.2148 16.548Z" fill="#282034"/>
  <path d="M0.546875 19.6V0H3.96288V16.184H12.1249V19.6H0.546875Z" fill="#282034"/>
</svg>
