<svg width="197" height="106" viewBox="0 0 197 106" fill="none" xmlns="http://www.w3.org/2000/svg">
<g id="Chart">
<path id="Background base" d="M1.66602 1C33.1848 3.81611 35.1367 71.2355 66.3327 79C92.0576 85.4028 105.084 49.0574 130.999 53C159.109 57.2763 168.104 95.1495 195.666 105H1.66602V1Z" fill="#FEF3F2"/>
<g id="Background gradient">
<path d="M1.66602 1C33.1848 3.81611 35.1367 71.2355 66.3327 79C92.0576 85.4028 105.084 49.0574 130.999 53C159.109 57.2763 168.104 95.1495 195.666 105H1.66602V1Z" fill="url(#paint0_linear_623_71381)"/>
<path d="M1.66602 1C33.1848 3.81611 35.1367 71.2355 66.3327 79C92.0576 85.4028 105.084 49.0574 130.999 53C159.109 57.2763 168.104 95.1495 195.666 105H1.66602V1Z" fill="url(#paint1_linear_623_71381)" fill-opacity="0.7"/>
</g>
<path id="Line" d="M195.666 105C168.104 95.1495 159.109 57.2763 130.999 53C105.084 49.0574 92.0576 85.4028 66.3327 79C35.1367 71.2355 33.1848 3.81611 1.66602 1" stroke="#FA7A78" stroke-width="2" stroke-linecap="round" stroke-linejoin="round"/>
</g>
<defs>
<linearGradient id="paint0_linear_623_71381" x1="98.666" y1="1" x2="98.666" y2="105" gradientUnits="userSpaceOnUse">
<stop offset="0.641167" stop-color="white" stop-opacity="0"/>
<stop offset="1" stop-color="white"/>
</linearGradient>
<linearGradient id="paint1_linear_623_71381" x1="146.284" y1="53" x2="125.155" y2="114.152" gradientUnits="userSpaceOnUse">
<stop offset="0.119938" stop-color="#FFE7E7"/>
<stop offset="1" stop-color="#FFF8F8"/>
</linearGradient>
</defs>
</svg>
