<svg width="205" height="106" viewBox="0 0 205 106" fill="none" xmlns="http://www.w3.org/2000/svg">
<g id="Chart">
<path id="Background base" d="M203.334 1C170.515 3.81611 168.483 71.2355 136.001 79C109.215 85.4028 95.6514 49.0574 68.6673 53C39.3989 57.2763 30.0329 95.1495 1.33398 105H203.334V1Z" fill="#ECFDF3"/>
<g id="Background gradient">
<path d="M203.334 1C170.515 3.81611 168.483 71.2355 136.001 79C109.215 85.4028 95.6514 49.0574 68.6673 53C39.3989 57.2763 30.0329 95.1495 1.33398 105H203.334V1Z" fill="url(#paint0_linear_623_71367)"/>
<path d="M203.334 1C170.515 3.81611 168.483 71.2355 136.001 79C109.215 85.4028 95.6514 49.0574 68.6673 53C39.3989 57.2763 30.0329 95.1495 1.33398 105H203.334V1Z" fill="url(#paint1_linear_623_71367)" fill-opacity="0.7"/>
</g>
<path id="Line" d="M1.33398 105C30.0329 95.1495 39.3989 57.2763 68.6673 53C95.6514 49.0574 109.215 85.4028 136.001 79C168.483 71.2355 170.515 3.81611 203.334 1" stroke="#74CD72" stroke-width="2" stroke-linecap="round" stroke-linejoin="round"/>
</g>
<defs>
<linearGradient id="paint0_linear_623_71367" x1="102.334" y1="1" x2="102.334" y2="105" gradientUnits="userSpaceOnUse">
<stop offset="0.641167" stop-color="white" stop-opacity="0"/>
<stop offset="1" stop-color="white"/>
</linearGradient>
<linearGradient id="paint1_linear_623_71367" x1="102.334" y1="42.7083" x2="102.334" y2="105" gradientUnits="userSpaceOnUse">
<stop stop-color="#E4FFDF" stop-opacity="0.42"/>
<stop offset="1" stop-color="#D8FFD8" stop-opacity="0.09"/>
</linearGradient>
</defs>
</svg>
