<svg width="238" height="106" viewBox="0 0 238 106" fill="none" xmlns="http://www.w3.org/2000/svg">
<g id="Chart">
<path id="Background base" d="M237 1C198.658 3.81611 196.283 71.2355 158.333 79C127.039 85.4028 111.193 49.0574 79.6667 53C45.4719 57.2763 34.5295 95.1495 1 105H237V1Z" fill="#ECFDF3"/>
<g id="Background gradient">
<path d="M237 1C198.658 3.81611 196.283 71.2355 158.333 79C127.039 85.4028 111.193 49.0574 79.6667 53C45.4719 57.2763 34.5295 95.1495 1 105H237V1Z" fill="url(#paint0_linear_623_71353)"/>
<path d="M237 1C198.658 3.81611 196.283 71.2355 158.333 79C127.039 85.4028 111.193 49.0574 79.6667 53C45.4719 57.2763 34.5295 95.1495 1 105H237V1Z" fill="url(#paint1_linear_623_71353)" fill-opacity="0.7"/>
</g>
<path id="Line" d="M1 105C34.5295 95.1495 45.4719 57.2763 79.6667 53C111.193 49.0574 127.039 85.4028 158.333 79C196.283 71.2355 198.658 3.81611 237 1" stroke="#74CD72" stroke-width="2" stroke-linecap="round" stroke-linejoin="round"/>
</g>
<defs>
<linearGradient id="paint0_linear_623_71353" x1="119" y1="1" x2="119" y2="105" gradientUnits="userSpaceOnUse">
<stop offset="0.641167" stop-color="white" stop-opacity="0"/>
<stop offset="1" stop-color="white"/>
</linearGradient>
<linearGradient id="paint1_linear_623_71353" x1="119" y1="42.7083" x2="119" y2="105" gradientUnits="userSpaceOnUse">
<stop stop-color="#E4FFDF" stop-opacity="0.42"/>
<stop offset="1" stop-color="#D8FFD8" stop-opacity="0.09"/>
</linearGradient>
</defs>
</svg>
